#!OML:ASF E:\Steps\Project 1\Capture day 1\Session 2\Subject.ASF
:FULLY-SPECIFIED
:DEGREES
124
root -1.44269 17.9586 20.6383 -154.662 1.35378 178.179
lowerback -27.7228 -3.15641 -7.61989
upperback -0.954873 -1.11799 -0.0679195
thorax 13.8342 -0.734188 3.72137
lowerneck -2.42298 -3.38457 -0.239776
upperneck 8.90747 -4.60878 3.8997
head 3.40725 -2.03662 1.15058
rclavicle -1.26228e-014 -2.82274e-014
rhumerus -38.362 -16.5744 -78.5433
rradius 34.2286
rwrist -4.21013
rhand -7.21085 -57.7026
rfingers 7.12502
rthumb 18.668 -86.8269
lclavicle -1.26228e-014 -2.82274e-014
lhumerus -29.3779 1.713 81.8588
lradius 26.9896
lwrist -2.44554
lhand -21.7579 -12.7418
lfingers 7.12502
lthumb 4.64255 17.1874
rfemur -24.4552 6.33171 19.1303
rtibia 11.0799
rfoot -19.9915 -3.01245
rtoes -23.9471
lfemur -22.4841 -3.19354 -24.9313
ltibia 7.22016
lfoot -6.34936 -6.66139
ltoes -22.1618
125
root -1.44251 17.9595 20.6373 -154.734 1.32492 178.193
lowerback -27.5667 -3.14792 -7.61421
upperback -0.998233 -1.12353 -0.0734182
thorax 13.7115 -0.730842 3.7131
lowerneck -2.3596 -3.37074 -0.215573
upperneck 8.88887 -4.59118 3.9496
head 3.38923 -2.02486 1.16444
rclavicle 5.96354e-015 1.43125e-014
rhumerus -38.4291 -16.582 -78.5284
rradius 34.1315
rwrist -4.24234
rhand -6.47345 -58.6163
rfingers 7.12502
rthumb 19.3772 -87.6708
lclavicle 5.96354e-015 1.43125e-014
lhumerus -29.5037 1.62189 81.8642
lradius 26.8899
lwrist -2.48322
lhand -21.8682 -12.5713
lfingers 7.12502
lthumb 4.53605 17.3601
rfemur -24.2862 6.41501 19.1529
rtibia 10.9256
rfoot -19.952 -3.16172
rtoes -24.2136
lfemur -22.3921 -3.18862 -24.9121
ltibia 7.19616
lfoot -6.36288 -6.66876
ltoes -22.1915
126
root -1.44204 17.9599 20.6373 -154.764 1.28628 178.216
lowerback -27.7372 -3.1209 -7.56185
upperback -0.842124 -1.09305 -0.109967
thorax 13.9658 -0.731886 3.65236
lowerneck -2.36067 -3.3629 -0.19831
upperneck 8.66346 -4.59165 4.06111
head 3.31469 -2.02796 1.19793
rclavicle 2.78299e-015 -1.90833e-014
rhumerus -38.1756 -16.7348 -78.6245
rradius 34.0397
rwrist -4.21726
rhand -6.69188 -58.5769
rfingers 7.12502
rthumb 19.1671 -87.6524
lclavicle 2.78299e-015 -1.90833e-014
lhumerus -29.2855 1.48101 81.858
lradius 26.8039
lwrist -2.34552
lhand -21.8387 -12.2413
lfingers 7.12502
lthumb 4.56456 17.6896
rfemur -24.2394 6.44626 19.1835
rtibia 10.9404
rfoot -20.0389 -3.20165
rtoes -24.1183
lfemur -22.3576 -3.34851 -24.8248
ltibia 7.21006
lfoot -6.36564 -6.56894
ltoes -21.8299
127
root -1.4429 17.9588 20.6402 -154.679 1.33719 178.237
lowerback -27.7335 -3.12061 -7.52876
upperback -0.908772 -1.09969 -0.0961465
thorax 13.8882 -0.725208 3.64774
lowerneck -2.19895 -3.34815 -0.207712
upperneck 8.45758 -4.56726 4.0588
head 3.21259 -2.02434 1.20181
rclavicle -2.98177e-016 1.11319e-014
rhumerus -38.2772 -16.6774 -78.5979
rradius 34.0867
rwrist -4.2349
rhand -6.88121 -58.6461
rfingers 7.12502
rthumb 18.9851 -87.7396
lclavicle -2.98177e-016 1.11319e-014
lhumerus -29.3866 1.56689 81.8439
lradius 26.7273
lwrist -2.29026
lhand -21.7766 -12.2943
lfingers 7.12502
lthumb 4.62447 17.6352
rfemur -24.396 6.44159 19.1836
rtibia 11.0515
rfoot -20.0374 -3.12162
rtoes -23.9698
lfemur -22.4798 -3.39537 -24.8026
ltibia 7.25876
lfoot -6.43953 -6.45313
ltoes -22.7377
128
root -1.4441 17.9586 20.6404 -154.669 1.39148 178.189
lowerback -27.7265 -3.13482 -7.55114
upperback -0.918666 -1.10875 -0.10742
thorax 13.8745 -0.728815 3.64435
lowerneck -2.17703 -3.32546 -0.145359
upperneck 8.31257 -4.53539 3.96891
head 3.15289 -2.0161 1.16279
rclavicle -7.95139e-016 -9.93923e-015
rhumerus -38.3839 -16.6646 -78.5634
rradius 34.1826
rwrist -4.21911
rhand -6.95776 -58.7938
rfingers 7.12502
rthumb 18.9114 -87.8945
lclavicle -7.95139e-016 -9.93923e-015
lhumerus -29.4096 1.90522 81.77
lradius 26.5537
lwrist -2.52334
lhand -21.6793 -12.3087
lfingers 7.12502
lthumb 4.71841 17.6188
rfemur -24.4232 6.41821 19.1131
rtibia 11.0357
rfoot -19.9545 -3.00076
rtoes -23.4946
lfemur -22.4876 -3.28942 -24.9219
ltibia 7.22777
lfoot -6.4164 -6.5368
ltoes -23.1409
129
root -1.44357 17.9587 20.6382 -154.704 1.34216 178.131
lowerback -27.7552 -3.17264 -7.64967
upperback -0.851509 -1.13166 -0.0922781
thorax 13.9694 -0.754079 3.70412
lowerneck -2.39264 -3.29985 -0.195531
upperneck 8.37974 -4.50935 3.99834
head 3.21857 -2.0014 1.17912
rclavicle -4.77083e-015 7.55382e-015
rhumerus -38.3698 -16.772 -78.4876
rradius 34.1806
rwrist -4.22649
rhand -7.05127 -58.9358
rfingers 7.12502
rthumb 18.8215 -88.0453
lclavicle -4.77083e-015 7.55382e-015
lhumerus -29.3166 2.19919 81.7515
lradius 26.353
lwrist -2.83677
lhand -21.6898 -12.3065
lfingers 7.12502
lthumb 4.70829 17.6211
rfemur -24.3466 6.42202 19.049
rtibia 10.9671
rfoot -19.9574 -3.01665
rtoes -23.0677
lfemur -22.4326 -3.22156 -25.0041
ltibia 7.18751
lfoot -6.11929 -6.79576
ltoes -21.2506
130
root -1.44253 17.9597 20.6365 -154.72 1.29592 178.145
lowerback -27.7297 -3.18446 -7.66215
upperback -0.846368 -1.14787 -0.0857913
thorax 13.9656 -0.763061 3.71208
lowerneck -2.44402 -3.27827 -0.245752
upperneck 8.40193 -4.48642 4.11199
head 3.2407 -1.9856 1.22545
rclavicle 2.88238e-015 -1.63003e-014
rhumerus -38.403 -16.8511 -78.4598
rradius 34.0991
rwrist -4.22143
rhand -6.93014 -59.2575
rfingers 7.12502
rthumb 18.938 -88.3556
lclavicle 2.88238e-015 -1.63003e-014
lhumerus -29.3241 2.25119 81.7031
lradius 26.1726
lwrist -2.92534
lhand -21.6196 -12.4732
lfingers 7.12502
lthumb 4.77609 17.4529
rfemur -24.3125 6.40342 19.0908
rtibia 10.9798
rfoot -19.9839 -3.07985
rtoes -23.2592
lfemur -22.4107 -3.23756 -24.9641
ltibia 7.19491
lfoot -6.24331 -6.6835
ltoes -22.1527
131
root -1.44306 17.9608 20.6354 -154.692 1.30219 178.136
lowerback -27.7131 -3.18352 -7.68381
upperback -0.885625 -1.13708 -0.0873841
thorax 13.9115 -0.754308 3.7269
lowerneck -2.58359 -3.29023 -0.235318
upperneck 8.5722 -4.50643 4.10917
head 3.32611 -1.98862 1.22026
rclavicle 1.70955e-014 6.36111e-015
rhumerus -38.5428 -16.8849 -78.4005
rradius 34.0844
rwrist -4.14074
rhand -6.66659 -59.3407
rfingers 7.12502
rthumb 19.1915 -88.4138
lclavicle 1.70955e-014 6.36111e-015
lhumerus -29.4003 2.24496 81.6719
lradius 25.995
lwrist -2.88291
lhand -21.6554 -12.5365
lfingers 7.12502
lthumb 4.74152 17.3904
rfemur -24.3243 6.36481 19.0913
rtibia 10.982
rfoot -19.9938 -3.12003
rtoes -23.8495
lfemur -22.4405 -3.25434 -24.9727
ltibia 7.22843
lfoot -6.3114 -6.64743
ltoes -22.1407
132
root -1.443 17.9606 20.6343 -154.687 1.28456 178.132
lowerback -27.698 -3.19591 -7.70576
upperback -0.899875 -1.15061 -0.0651495
thorax 13.8906 -0.760981 3.75815
lowerneck -2.7686 -3.29467 -0.310254
upperneck 8.74855 -4.51668 4.13842
head 3.42611 -1.98852 1.24037
rclavicle 2.98177e-016 2.46493e-014
rhumerus -38.5776 -16.9044 -78.3171
rradius 33.9646
rwrist -4.11923
rhand -6.52675 -59.1239
rfingers 7.12502
rthumb 19.3259 -88.1836
lclavicle 2.98177e-016 2.46493e-014
lhumerus -29.4356 2.41415 81.6166
lradius 25.7857
lwrist -2.96108
lhand -21.7556 -12.5756
lfingers 7.12502
lthumb 4.64473 17.3534
rfemur -24.2978 6.38355 19.0847
rtibia 10.925
rfoot -20.0121 -3.17761
rtoes -24.2349
lfemur -22.4475 -3.26628 -24.9679
ltibia 7.25537
lfoot -6.30737 -6.6782
ltoes -21.2553
133
root -1.44178 17.9586 20.6334 -154.708 1.26423 178.146
lowerback -27.6848 -3.218 -7.73495
upperback -0.884488 -1.18085 -0.0253243
thorax 13.9073 -0.780413 3.80568
lowerneck -2.67719 -3.29401 -0.348456
upperneck 8.58659 -4.5131 4.14643
head 3.35381 -1.99423 1.25081
rclavicle 5.46658e-015 -4.01545e-014
rhumerus -38.4755 -16.9588 -78.2444
rradius 33.7241
rwrist -4.14777
rhand -6.51922 -59.3379
rfingers 7.12502
rthumb 19.3332 -88.3969
lclavicle 5.46658e-015 -4.01545e-014
lhumerus -29.4185 2.64491 81.5569
lradius 25.5735
lwrist -3.03592
lhand -21.5973 -12.5036
lfingers 7.12502
lthumb 4.79761 17.4221
rfemur -24.2563 6.43495 19.0969
rtibia 10.8655
rfoot -19.9704 -3.19292
rtoes -23.9277
lfemur -22.4182 -3.31062 -24.9288
ltibia 7.24506
lfoot -6.27222 -6.70014
ltoes -20.6459
134
root -1.4414 17.9571 20.6316 -154.703 1.26448 178.142
lowerback -27.824 -3.23713 -7.77486
upperback -0.784208 -1.18966 -0.00101139
thorax 14.0906 -0.8008 3.84693
lowerneck -2.68234 -3.30585 -0.295965
upperneck 8.45196 -4.52854 4.05872
head 3.30404 -2.00949 1.21179
rclavicle -4.17448e-015 3.65764e-014
rhumerus -38.3513 -17.0197 -78.2264
rradius 33.6373
rwrist -4.16389
rhand -6.69493 -59.5577
rfingers 7.12502
rthumb 19.1642 -88.6335
lclavicle -4.17448e-015 3.65764e-014
lhumerus -29.2539 2.86148 81.5173
lradius 25.3496
lwrist -3.05543
lhand -21.491 -12.5647
lfingers 7.12502
lthumb 4.90026 17.3587
rfemur -24.273 6.394 19.1033
rtibia 10.8975
rfoot -19.9561 -3.10811
rtoes -23.4479
lfemur -22.42 -3.25867 -24.9515
ltibia 7.23509
lfoot -6.1883 -6.81739
ltoes -20.3652
